<?xml version="1.0" encoding="UTF-8" standalone="no"?>
<svg
   viewBox="0 0 200 200"
   version="1.1"
   id="svg6"
   sodipodi:docname="browkorf.svg"
   inkscape:version="1.4.2 (ebf0e94, 2025-05-08)"
   xmlns:inkscape="http://www.inkscape.org/namespaces/inkscape"
   xmlns:sodipodi="http://sodipodi.sourceforge.net/DTD/sodipodi-0.dtd"
   xmlns:xlink="http://www.w3.org/1999/xlink"
   xmlns="http://www.w3.org/2000/svg"
   xmlns:svg="http://www.w3.org/2000/svg">
  <sodipodi:namedview
     id="namedview6"
     pagecolor="#ffffff"
     bordercolor="#000000"
     borderopacity="0.25"
     inkscape:showpageshadow="2"
     inkscape:pageopacity="0.0"
     inkscape:pagecheckerboard="0"
     inkscape:deskcolor="#d1d1d1"
     inkscape:zoom="3.245"
     inkscape:cx="90.292758"
     inkscape:cy="101.54083"
     inkscape:window-width="1536"
     inkscape:window-height="902"
     inkscape:window-x="0"
     inkscape:window-y="0"
     inkscape:window-maximized="1"
     inkscape:current-layer="svg6" />
  <defs
     id="defs1">
    <linearGradient
       id="linearGradient21"
       inkscape:collect="always">
      <stop
         style="stop-color:#502d16;stop-opacity:1;"
         offset="0"
         id="stop21" />
      <stop
         style="stop-color:#525252;stop-opacity:1;"
         offset="1"
         id="stop22" />
    </linearGradient>
    <linearGradient
       id="linearGradient19"
       inkscape:collect="always">
      <stop
         style="stop-color:#808080;stop-opacity:1;"
         offset="0"
         id="stop19" />
      <stop
         style="stop-color:#baaa16;stop-opacity:1;"
         offset="1"
         id="stop20" />
    </linearGradient>
    <style
       id="style1">
            .rim { fill: #E8DCC4; stroke: #3E2723; stroke-width: 2; }
            .scale-row { fill: #4A2E1F; stroke: #28150D; stroke-width: 2; stroke-linejoin: round; }
            .base { fill: #3E2723; stroke: #28150D; stroke-width: 2; }
        </style>
    <linearGradient
       inkscape:collect="always"
       xlink:href="#linearGradient19"
       id="linearGradient20"
       x1="29.275808"
       y1="25.577812"
       x2="205.85516"
       y2="221.87982"
       gradientUnits="userSpaceOnUse" />
    <linearGradient
       inkscape:collect="always"
       xlink:href="#linearGradient21"
       id="linearGradient22"
       x1="-37.904469"
       y1="388.90601"
       x2="216.33282"
       y2="-184.28352"
       gradientUnits="userSpaceOnUse" />
  </defs>
  <text
     xml:space="preserve"
     style="text-align:start;writing-mode:lr-tb;direction:ltr;text-anchor:start;fill:#502d16;stroke:#ffffff;stroke-width:3.76e-05"
     x="63.338196"
     y="-95.716171"
     id="text7"
     transform="rotate(90)"><tspan
       sodipodi:role="line"
       id="tspan7"
       x="63.338196"
       y="-95.716171"></tspan></text>
  <rect
     style="fill:url(#linearGradient20);stroke:#ffffff;stroke-width:0.0000376;fill-opacity:1"
     id="rect8"
     width="168.56703"
     height="166.1017"
     x="15.716484"
     y="16.94915"
     ry="9.7072449" />
  <path
     d="m 171.9283,96.476377 c 0,-17.875596 -2.668,-31.348996 -8.004,-40.420196 -5.2026,-9.2046 -14.3405,-13.8069 -27.4137,-13.8069 -8.4042,0 -15.4077,2.3345 -21.0105,7.0035 -5.4694,4.669 -9.0045,11.4057 -10.6053,20.2101 h -1.0005 c -0.9338,-6.003 -2.668,-11.4057 -5.202598,-16.2081 -2.534598,-4.9358 -6.136398,-8.8044 -10.805399,-11.6058 -4.669,-2.8014 -10.7387,-4.2021 -18.2091,-4.2021 -12.939801,0 -22.944801,4.4689 -30.015001,13.4067 -7.0702,8.8044 -10.6053,20.8771 -10.6053,36.2181 0,0 -11.83817,38.386939 0,50.225109 33.675112,33.67511 109.196288,33.67511 142.871398,0 9.62146,-9.62147 0,-40.820413 0,-40.820413 z m -60.8304,-3.601796 c 0,-12.2728 1.9343,-20.677 5.8029,-25.2126 4.002,-4.5356 9.8716,-6.8034 17.6088,-6.8034 7.8706,0 13.4734,2.8014 16.8084,8.4042 3.4684,5.4694 5.2026,14.2738 5.2026,26.413196 V 119.28779 H 111.0979 Z M 96.090404,119.28779 H 44.264502 V 90.473381 c 0,-12.673 2.4679,-21.4774 7.4037,-26.4132 4.9358,-4.9358 11.4057,-7.4037 19.409701,-7.4037 7.4704,0 13.4734,2.6013 18.009,7.8039 4.669001,5.0692 7.003501,14.2071 7.003501,27.4137 z"
     id="text8"
     style="font-size:200.1px;font-family:'Noto Music';-inkscape-font-specification:'Noto Music';fill:url(#linearGradient22);stroke:#ffffff;stroke-width:0.000626981;fill-opacity:1"
     aria-label="B"
     sodipodi:nodetypes="scsccccsscssssscscsccsccssscsc" />
</svg>
