<?xml version="1.0" encoding="UTF-8" standalone="no"?>
<svg
   viewBox="0 0 1280 720"
   version="1.1"
   id="svg6"
   sodipodi:docname="banner.svg"
   inkscape:version="1.4.2 (ebf0e94, 2025-05-08)"
   width="1280"
   height="720"
   inkscape:export-filename="tvBanner.png"
   inkscape:export-xdpi="96"
   inkscape:export-ydpi="96"
   xmlns:inkscape="http://www.inkscape.org/namespaces/inkscape"
   xmlns:sodipodi="http://sodipodi.sourceforge.net/DTD/sodipodi-0.dtd"
   xmlns:xlink="http://www.w3.org/1999/xlink"
   xmlns="http://www.w3.org/2000/svg"
   xmlns:svg="http://www.w3.org/2000/svg">
  <sodipodi:namedview
     id="namedview6"
     pagecolor="#ffffff"
     bordercolor="#000000"
     borderopacity="0.25"
     inkscape:showpageshadow="2"
     inkscape:pageopacity="0.0"
     inkscape:pagecheckerboard="0"
     inkscape:deskcolor="#d1d1d1"
     inkscape:zoom="0.74902012"
     inkscape:cx="688.90005"
     inkscape:cy="302.39508"
     inkscape:window-width="1536"
     inkscape:window-height="902"
     inkscape:window-x="0"
     inkscape:window-y="0"
     inkscape:window-maximized="1"
     inkscape:current-layer="svg6" />
  <defs
     id="defs1">
    <linearGradient
       id="linearGradient21"
       inkscape:collect="always">
      <stop
         style="stop-color:#502d16;stop-opacity:1;"
         offset="0"
         id="stop21" />
      <stop
         style="stop-color:#525252;stop-opacity:1;"
         offset="1"
         id="stop22" />
    </linearGradient>
    <linearGradient
       id="linearGradient19"
       inkscape:collect="always">
      <stop
         style="stop-color:#808080;stop-opacity:1;"
         offset="0"
         id="stop19" />
      <stop
         style="stop-color:#baaa16;stop-opacity:1;"
         offset="1"
         id="stop20" />
    </linearGradient>
    <style
       id="style1">
            .rim { fill: #E8DCC4; stroke: #3E2723; stroke-width: 2; }
            .scale-row { fill: #4A2E1F; stroke: #28150D; stroke-width: 2; stroke-linejoin: round; }
            .base { fill: #3E2723; stroke: #28150D; stroke-width: 2; }
        </style>
    <linearGradient
       inkscape:collect="always"
       xlink:href="#linearGradient19"
       id="linearGradient20"
       x1="29.275808"
       y1="25.577812"
       x2="205.85516"
       y2="221.87982"
       gradientUnits="userSpaceOnUse"
       gradientTransform="matrix(12.323729,0,0,12.323729,-592.37298,-872.37295)" />
    <linearGradient
       inkscape:collect="always"
       xlink:href="#linearGradient21"
       id="linearGradient22"
       x1="-37.904469"
       y1="388.90601"
       x2="216.33282"
       y2="-184.28352"
       gradientUnits="userSpaceOnUse"
       gradientTransform="matrix(3.8555821,0,0,3.8555821,254.4417,-25.558208)" />
  </defs>
  <text
     xml:space="preserve"
     style="text-align:start;writing-mode:lr-tb;direction:ltr;text-anchor:start;fill:#502d16;stroke:#ffffff;stroke-width:3.76e-05"
     x="63.338196"
     y="-95.716171"
     id="text7"
     transform="rotate(90)"><tspan
       sodipodi:role="line"
       id="tspan7"
       x="63.338196"
       y="-95.716171" /></text>
  <rect
     style="fill:url(#linearGradient20);fill-opacity:1;stroke:#ffffff;stroke-width:0.000463372"
     id="rect8"
     width="2077.3745"
     height="2046.9924"
     x="-398.68723"
     y="-663.49622"
     ry="119.62946" />
  <path
     d="m 917.32539,346.41439 c 0,-68.92084 -10.28668,-120.86864 -30.86009,-155.8434 -20.05904,-35.48908 -55.29096,-53.23363 -105.69576,-53.23363 -32.40308,0 -59.40565,9.00086 -81.0077,27.00257 -21.08772,18.00171 -34.7176,43.97561 -40.88961,77.9217 h -3.85751 c -3.60034,-23.14506 -10.28669,-43.97561 -20.05905,-62.49166 -9.77232,-19.03038 -23.65936,-33.94609 -41.66111,-44.74712 -18.00171,-10.80102 -41.40394,-16.20154 -70.20668,-16.20154 -49.89046,0 -88.46556,17.23021 -115.7253,51.69064 -27.25973,33.94608 -40.8896,80.49337 -40.8896,139.64185 0,0 -45.64303,148.004 0,193.64704 129.83719,129.83715 421.01526,129.83715 550.85241,0 37.09636,-37.09637 0,-157.38645 0,-157.38645 z m -234.5366,-13.88703 c 0,-47.31879 7.45785,-79.72187 22.37356,-97.20925 15.43004,-17.48738 38.06076,-26.23106 67.89217,-26.23106 30.34575,0 51.9478,10.80102 64.80617,32.40308 13.3727,21.08772 20.05905,55.0338 20.05905,101.83826 v 91.03727 H 682.78879 Z m -57.86261,101.8383 H 425.10713 V 323.26934 c 0,-48.86179 9.51519,-82.80788 28.54557,-101.83827 19.03038,-19.03037 43.97562,-28.54557 74.83569,-28.54557 28.80274,0 51.9478,10.02953 69.43518,30.08858 18.00175,19.54471 27.00261,54.77664 27.00261,105.69577 z"
     id="text8"
     style="font-size:200.1px;font-family:'Noto Music';-inkscape-font-specification:'Noto Music';fill:url(#linearGradient22);fill-opacity:1;stroke:#ffffff;stroke-width:0.00241737"
     aria-label="B"
     sodipodi:nodetypes="scsccccsscssssscscsccsccssscsc" />
</svg>
